Coordinates
version=1
nRows=19
nColumns=18
inDegrees=yes

Units are S.I. units (second, meters, Newtons, ...)
Angles are in degrees.

endheader
time	ground_thorax_rot_x	ground_thorax_rot_y	ground_thorax_rot_z	ground_thorax_tx	ground_thorax_ty	ground_thorax_tz	clav_prot	clav_elev	scapula_abduction	scapula_elevation	scapula_upward_rot	scapula_winging	plane_elv	shoulder_elv	axial_rot	elbow_flexion	pro_sup
      1.24000000	      0.99452803	     -2.33014318	    -10.65034615	     -0.00423131	      0.00403036	     -0.00078352	    -23.06706329	     14.36833804	    -10.40805504	      6.07649566	     28.69525076	     -0.79965041	     -6.53237487	      2.75862802	     39.27894092	      0.00000000	     34.32000000
      1.25000000	      0.63895830	     -2.25276256	    -10.32258260	     -0.00423131	      0.00403036	     -0.00078352	    -22.76853974	     14.23954023	     -9.67070981	      5.97213173	     28.82323936	     -0.84182985	    -23.41243205	      1.09326203	     59.59544421	      0.00000000	     34.32000000
      1.26000000	      0.80103050	     -2.19391010	    -10.34756005	     -0.00423131	      0.00403036	     -0.00078352	    -22.90807861	     14.48020790	     -9.98264337	      6.11513670	     28.93858281	     -0.85301953	    -17.41999684	      1.37180608	     54.28708687	      0.00000000	     34.32000000
      1.27000000	      0.72539571	     -2.09465920	    -10.43121787	     -0.00423131	      0.00403036	     -0.00078352	    -23.12633877	     14.48207792	    -10.28249415	      6.07292772	     29.06903696	     -0.91228867	    -13.29593863	      1.65472779	     47.84888843	      0.00000000	     34.32000000
      1.28000000	      0.79733289	     -2.15723282	    -10.39475413	     -0.00423131	      0.00403036	     -0.00078352	    -23.23188427	     14.79498547	    -10.33226260	      6.20494733	     29.48275969	     -1.01064193	    -13.79363213	      0.98309741	     51.00953668	      0.00000000	     34.32000000
      1.29000000	      0.62820007	     -2.11092774	    -10.33552451	     -0.00423131	      0.00403036	     -0.00078352	    -23.23084491	     14.81927091	    -10.32763886	      6.21833187	     29.50393993	     -1.01417922	    -13.78434524	      0.84244670	     51.01030365	      0.00000000	     34.32000000
      1.30000000	      0.64765537	     -2.03706985	    -10.41790521	     -0.00423131	      0.00403036	     -0.00078352	    -23.43016384	     14.99859609	    -10.77675910	      6.32823236	     29.54439122	     -1.01648737	     -3.16856801	      1.59602071	     37.78911093	      0.00000000	     34.32000000
      1.31000000	      0.69596122	     -1.64964162	    -10.39894085	     -0.00423131	      0.00403036	     -0.00078352	    -23.64439391	     15.15116298	    -11.14317076	      6.39198244	     29.69881885	     -1.06370185	     -9.50257734	      0.39466253	     50.74126814	      0.00000000	     34.32000000
      1.32000000	      0.61286932	     -1.48992588	    -10.31135343	     -0.00423131	      0.00403036	     -0.00078352	    -23.64645673	     15.12298388	    -11.10420852	      6.36442477	     29.72894590	     -1.07838705	    -14.46983109	      0.12377997	     53.35663731	      0.00000000	     34.32000000
      1.33000000	      0.65161498	     -1.53366726	    -10.31776385	     -0.00423131	      0.00403036	     -0.00078352	    -23.65338832	     15.11155438	    -11.11824804	      6.35775746	     29.71866516	     -1.07772288	    -14.47245598	      0.14717952	     53.35522193	      0.00000000	     34.32000000
      1.34000000	      0.68465220	     -1.43809855	    -10.14084267	     -0.00423131	      0.00403036	     -0.00078352	    -23.70889425	     15.22286953	    -11.70891913	      6.54803230	     29.21563514	     -0.89510634	     -4.66581143	      1.36273339	     41.39955818	      0.00000000	     34.32000000
      1.35000000	      0.61007735	     -1.66029662	    -10.31204811	     -0.00423131	      0.00403036	     -0.00078352	    -23.57209994	     14.94475788	    -10.97782817	      6.27107316	     29.57912590	     -1.04948670	    -16.77252652	      0.20907956	     54.56261170	      0.00000000	     34.32000000
      1.36000000	      0.63549652	     -1.69419277	    -10.32908742	     -0.00423131	      0.00403036	     -0.00078352	    -23.57188006	     14.94020438	    -10.98207790	      6.26982460	     29.56978130	     -1.04733081	    -16.77666981	      0.22445560	     54.55968580	      0.00000000	     34.32000000
      1.37000000	      0.79826340	     -1.85629175	    -10.49208860	     -0.00423131	      0.00403036	     -0.00078352	    -23.62122087	     15.04828691	    -11.16357909	      6.35200523	     29.54312791	     -1.02601705	     -4.74365652	      1.55162044	     38.05531659	      0.00000000	     34.32000000
      1.38000000	      0.82691184	     -1.80809579	    -10.49699607	     -0.00423131	      0.00403036	     -0.00078352	    -23.62868949	     15.02991215	    -11.16929474	      6.33887438	     29.53927511	     -1.02826071	     -4.76635540	      1.65515105	     38.07797001	      0.00000000	     34.32000000
      1.39000000	      0.85234578	     -1.62773697	    -10.55985041	     -0.00423131	      0.00403036	     -0.00078352	    -23.81146764	     15.00315804	    -11.52787033	      6.31632048	     29.49456723	     -1.03600885	     -3.43114880	      1.61538531	     38.40617540	      0.00000000	     34.32000000
      1.40000000	      0.60719599	     -1.73400879	    -10.31050912	     -0.00423131	      0.00403036	     -0.00078352	    -23.44547679	     14.91254050	    -10.75454507	      6.26458885	     29.54031637	     -1.03012076	    -16.34658505	      0.43816642	     52.41270553	      0.00000000	     34.32000000
      1.41000000	      0.66891581	     -1.70951860	    -10.49034153	     -0.00423131	      0.00403036	     -0.00078352	    -23.53005858	     14.83186355	    -11.01466692	      6.24056747	     29.35387311	     -0.98811110	     -7.56681623	      1.41538150	     41.98841406	      0.00000000	     34.32000000
      1.42000000	      0.60027018	     -1.75495618	    -10.29175670	     -0.00423131	      0.00403036	     -0.00078352	    -23.35006698	     14.82557811	    -10.52921992	      6.20855049	     29.53280191	     -1.03289255	    -18.24984827	      0.48852247	     53.72205255	      0.00000000	     34.32000000
